<svg width="48" height="48" viewBox="0 0 48 48" fill="none" xmlns="http://www.w3.org/2000/svg">
<path d="M38.8602 25.96C38.9402 25.32 39.0002 24.68 39.0002 24C39.0002 23.32 38.9402 22.68 38.8602 22.04L43.0802 18.74C43.4602 18.44 43.5602 17.9 43.3202 17.46L39.3202 10.54C39.0802 10.1 38.5402 9.94 38.1002 10.1L33.1202 12.1C32.0802 11.3 30.9602 10.64 29.7402 10.14L28.9802 4.84C28.9202 4.36 28.5002 4 28.0002 4H20.0002C19.5002 4 19.0802 4.36 19.0202 4.84L18.2602 10.14C17.0402 10.64 15.9202 11.32 14.8802 12.1L9.90017 10.1C9.44017 9.92 8.92017 10.1 8.68017 10.54L4.68017 17.46C4.42017 17.9 4.54017 18.44 4.92017 18.74L9.14017 22.04C9.06017 22.68 9.00017 23.34 9.00017 24C9.00017 24.66 9.06017 25.32 9.14017 25.96L4.92017 29.26C4.54017 29.56 4.44017 30.1 4.68017 30.54L8.68017 37.46C8.92017 37.9 9.46017 38.06 9.90017 37.9L14.8802 35.9C15.9202 36.7 17.0402 37.36 18.2602 37.86L19.0202 43.16C19.0802 43.64 19.5002 44 20.0002 44H28.0002C28.5002 44 28.9202 43.64 28.9802 43.16L29.7402 37.86C30.9602 37.36 32.0802 36.68 33.1202 35.9L38.1002 37.9C38.5602 38.08 39.0802 37.9 39.3202 37.46L43.3202 30.54C43.5602 30.1 43.4602 29.56 43.0802 29.26L38.8602 25.96ZM24.0002 31C20.1402 31 17.0002 27.86 17.0002 24C17.0002 20.14 20.1402 17 24.0002 17C27.8602 17 31.0002 20.14 31.0002 24C31.0002 27.86 27.8602 31 24.0002 31Z" fill="white" fill-opacity="0.87"/>
</svg>
